<svg width="16" height="12" viewBox="0 0 16 12" fill="none" xmlns="http://www.w3.org/2000/svg">
<path d="M1.35708 6.21493C1.31103 6.07676 1.31098 5.92716 1.35696 5.78895C2.28253 3.00648 4.90724 1 8.00059 1C11.0925 1 13.7162 3.00462 14.6429 5.78507C14.689 5.92325 14.689 6.07285 14.6431 6.21105C13.7175 8.99352 11.0928 11 7.99942 11C4.90751 11 2.28381 8.99539 1.35708 6.21493Z" stroke="#171E27" stroke-width="1.5" stroke-linecap="round" stroke-linejoin="round"/>
<path d="M10 6C10 7.10457 9.10462 8 8.00005 8C6.89548 8 6.00005 7.10457 6.00005 6C6.00005 4.89543 6.89548 4 8.00005 4C9.10462 4 10 4.89543 10 6Z" stroke="#171E27" stroke-width="1.5" stroke-linecap="round" stroke-linejoin="round"/>
</svg>
