<svg width="24" height="24" viewBox="0 0 24 24" fill="none" xmlns="http://www.w3.org/2000/svg">
<path d="M21 12.9067C21 7.98419 17.0165 4 12.0935 4C7.76223 4 4.06709 7.09835 3.27388 11.211L2.01346 16.6782C1.95896 16.916 2.0871 17.0966 2.09377 17.1135L2.09479 17.1151L4.31932 20.4521C4.42253 20.6069 4.59648 20.7 4.78261 20.7H16.2619C16.3596 20.7 16.4555 20.6742 16.5402 20.6253C19.2389 19.0674 21 16.1629 21 12.9067ZM4.36107 11.451C4.36266 11.4444 4.36397 11.4375 4.36527 11.4307C4.48573 10.802 4.68143 10.2029 4.94206 9.64179C6.74694 9.75689 8.43252 10.0016 9.86674 10.3435V15.4707C7.78427 15.9698 5.43492 16.2 3.25706 16.2396L4.36107 11.451ZM12.7487 11.3306C12.3441 11.734 12.0935 12.2915 12.0935 12.9065C12.0935 13.5212 12.3438 14.0784 12.7478 14.4817C12.2538 14.7293 11.6576 14.9608 10.98 15.1685V10.644C11.6552 10.85 12.251 11.0804 12.7487 11.3306ZM14.32 14.02C13.7061 14.02 13.2067 13.5206 13.2067 12.9067C13.2067 12.2928 13.7061 11.7933 14.32 11.7933C14.9339 11.7933 15.4334 12.2928 15.4334 12.9067C15.4334 13.5206 14.9339 14.02 14.32 14.02ZM16.11 19.5865H5.0805L3.58685 17.3462C6.60807 17.2665 11.3878 16.7227 13.9198 15.0966C14.0498 15.1202 14.1833 15.1333 14.32 15.1333C15.5478 15.1333 16.5467 14.1343 16.5467 12.9067C16.5467 11.6789 15.5478 10.68 14.32 10.68C14.1833 10.68 14.0498 10.693 13.9198 10.7167C11.788 9.34607 8.0781 8.76624 5.54987 8.56881C6.97409 6.46531 9.39969 5.11343 12.0935 5.11343C16.3906 5.11343 19.8867 8.60939 19.8867 12.9067C19.8867 13.67 19.7735 14.4193 19.5595 15.1333H17.1034C16.1826 15.1333 15.4334 15.8825 15.4334 16.8033C15.4334 17.7241 16.1826 18.4733 17.1034 18.4733H17.5451C17.116 18.8948 16.6356 19.2697 16.11 19.5865ZM18.4845 17.36H17.1034C16.7965 17.36 16.5467 17.1102 16.5467 16.8033C16.5467 16.4963 16.7965 16.2463 17.1034 16.2463H19.1306C18.9461 16.6343 18.7301 17.0071 18.4845 17.36Z" fill="#171E27" stroke="#171E27" stroke-width="0.3"/>
<path d="M18.7425 13.4621C18.7425 13.7738 18.4898 14.0264 18.1781 14.0264C17.8663 14.0264 17.6138 13.7738 17.6138 13.4621C17.6138 13.1504 17.8663 12.8977 18.1781 12.8977C18.4898 12.8977 18.7425 13.1504 18.7425 13.4621Z" fill="#171E27" stroke="#171E27" stroke-width="0.3"/>
<path d="M18.7425 11.2378C18.7425 11.5495 18.4898 11.8022 18.1781 11.8022C17.8663 11.8022 17.6138 11.5495 17.6138 11.2378C17.6138 10.9261 17.8663 10.6735 18.1781 10.6735C18.4898 10.6735 18.7425 10.9261 18.7425 11.2378Z" fill="#171E27" stroke="#171E27" stroke-width="0.3"/>
</svg>
