<svg xmlns="http://www.w3.org/2000/svg" width="12" height="10.547" viewBox="0 0 12 10.547">
  <g id="racing-helmet" transform="translate(0)">
    <path id="Path_39006" data-name="Path 39006" d="M12,5.625A5.622,5.622,0,0,0,6.375,0,5.68,5.68,0,0,0,.805,4.554l-.8,3.453a.377.377,0,0,0,.051.275h0l1.4,2.108a.352.352,0,0,0,.293.157h7.25a.352.352,0,0,0,.176-.047A5.627,5.627,0,0,0,12,5.625ZM1.492,4.706l0-.013a4.843,4.843,0,0,1,.364-1.13,18.8,18.8,0,0,1,3.11.443V7.245A20,20,0,0,1,.794,7.73Zm5.3-.076a1.4,1.4,0,0,0,0,1.99,7.292,7.292,0,0,1-1.116.434V4.2A7.172,7.172,0,0,1,6.789,4.63Zm.992,1.7a.7.7,0,1,1,.7-.7A.7.7,0,0,1,7.782,6.328Zm1.13,3.516H1.946L1,8.429c1.908-.05,4.927-.394,6.526-1.421a1.406,1.406,0,1,0,0-2.766A12.875,12.875,0,0,0,2.242,2.886,4.989,4.989,0,0,1,6.375.7a4.918,4.918,0,0,1,4.715,6.328H9.539a1.055,1.055,0,0,0,0,2.109h.279A4.912,4.912,0,0,1,8.912,9.844Zm1.5-1.406H9.539a.352.352,0,0,1,0-.7h1.28A4.961,4.961,0,0,1,10.412,8.438Zm0,0" transform="translate(0)" fill="#566881"/>
    <path id="Path_39007" data-name="Path 39007" d="M422.709,240.368a.356.356,0,1,1-.356-.356A.356.356,0,0,1,422.709,240.368Zm0,0" transform="translate(-412.134 -234.392)" fill="#566881"/>
    <path id="Path_39008" data-name="Path 39008" d="M422.709,180.364a.356.356,0,1,1-.356-.356A.356.356,0,0,1,422.709,180.364Zm0,0" transform="translate(-412.134 -175.793)" fill="#566881"/>
  </g>
</svg>
